<svg xmlns="http://www.w3.org/2000/svg" viewBox="0 0 1200 800" role="img" aria-labelledby="title desc">
  <title id="title">blog的出发</title>
  <desc id="desc">A pastel chalk doodle cover with pink, mint, blue, hearts, stars, and handwritten blog title.</desc>
  <defs>
    <filter id="chalk">
      <feTurbulence type="fractalNoise" baseFrequency="0.9" numOctaves="3" seed="8" result="noise"/>
      <feDisplacementMap in="SourceGraphic" in2="noise" scale="2.6"/>
    </filter>
    <linearGradient id="board" x1="0" x2="1" y1="0" y2="1">
      <stop offset="0" stop-color="#ff9dca"/>
      <stop offset="0.52" stop-color="#ffd4e9"/>
      <stop offset="1" stop-color="#cbbcff"/>
    </linearGradient>
  </defs>
  <rect width="1200" height="800" fill="#fff7fc"/>
  <rect x="66" y="58" width="1068" height="684" rx="54" fill="url(#board)" stroke="#fff" stroke-width="12"/>
  <g opacity="0.35">
    <path d="M126 136h948M126 206h948M126 276h948M126 346h948M126 416h948M126 486h948M126 556h948M126 626h948" stroke="#fff" stroke-width="3" stroke-dasharray="14 24"/>
    <path d="M178 112v548M276 112v548M374 112v548M472 112v548M570 112v548M668 112v548M766 112v548M864 112v548M962 112v548" stroke="#fff" stroke-width="2" stroke-dasharray="10 22"/>
  </g>
  <g filter="url(#chalk)" stroke-linecap="round" stroke-linejoin="round">
    <path d="M201 210c-38-58 48-93 83-37 35-56 122-20 84 38-28 43-84 76-84 76s-55-34-83-77Z" fill="none" stroke="#fff" stroke-width="13"/>
    <path d="M880 190c45 14 79 48 92 93M940 177c-24 42-63 71-111 83" fill="none" stroke="#b8f4dc" stroke-width="12"/>
    <path d="M905 514c48-38 111-19 128 33 20 61-42 118-102 86-53 43-125 3-112-64 8-39 39-62 86-55Z" fill="none" stroke="#fff" stroke-width="12"/>
    <path d="M214 574c48-18 103-13 146 15M236 629c33-32 75-48 126-48" fill="none" stroke="#b9e5ff" stroke-width="12"/>
    <path d="M1030 380h58M1059 351v58M140 404h52M166 378v52" stroke="#fff4ad" stroke-width="10"/>
    <path d="M706 167h44M728 145v44M476 632h42M497 611v42" stroke="#fff" stroke-width="9"/>
  </g>
  <g filter="url(#chalk)">
    <text x="600" y="365" text-anchor="middle" fill="#fff" font-size="132" font-family="Gaegu, ZCOOL KuaiLe, sans-serif" font-weight="700" letter-spacing="0">blog的出发</text>
    <text x="600" y="445" text-anchor="middle" fill="#5f3d67" font-size="42" font-family="Gaegu, sans-serif" font-weight="700">strawberry chalk diary</text>
  </g>
  <g filter="url(#chalk)" fill="none" stroke="#fff" stroke-linecap="round">
    <path d="M355 501c112 42 275 51 474 5" stroke-width="10"/>
    <path d="M414 540c87 24 218 28 369 0" stroke-width="7" opacity="0.8"/>
  </g>
</svg>
